<svg xmlns="http://www.w3.org/2000/svg" viewBox="0 0 195.17 90.19"><defs><style>.cls-1{fill:#211915;}</style></defs><g id="Layer_2" data-name="Layer 2"><g id="Capa_1" data-name="Capa 1"><path class="cls-1" d="M14.57,19.57a1,1,0,0,0,.1.14.18.18,0,0,1,0,.11l.08,1.42a1.37,1.37,0,0,0,.07.63,1.85,1.85,0,0,0,.36.6,2.12,2.12,0,0,0,.59.46,2.15,2.15,0,0,0,.8.25,2.31,2.31,0,0,0,.92,0c.25-.07.65-.18,1.19-.36a2.34,2.34,0,0,0,.68-.17c.22-.1.44-.2.66-.32s.41-.24.59-.36l.45-.3a2.2,2.2,0,0,0,.69-.78,1.72,1.72,0,0,1,.62-.71A4.85,4.85,0,0,0,23.52,19,2.79,2.79,0,0,0,24,17.76l.3-.3c.09-.21.16-.39.21-.53s.12-.27.18-.39.12-.25.18-.39.12-.32.21-.53.07-.2.11-.32.09-.22.14-.33a1.74,1.74,0,0,0,.13-.36.48.48,0,0,1,.11-.26.38.38,0,0,0,.09-.18s0-.07.05-.12l.16-.15.14-.7.17-.41c.08-.2.17-.41.26-.66s.16-.49.23-.74a4,4,0,0,0,.14-.67l.1-.09a2.92,2.92,0,0,1,.9,0,1.13,1.13,0,0,0,.77-.09.58.58,0,0,1,.17-.3c.1-.11.2-.23.31-.34l.32-.32c.09-.1.15-.17.15-.21s0-.14-.14-.24a.8.8,0,0,1-.19-.33,2,2,0,0,0-.54,0,3.6,3.6,0,0,1-.65,0,1,1,0,0,0-.3,0,2.26,2.26,0,0,0-.34.08l0-.33a5.49,5.49,0,0,0,.31-1.78q0-.72-.06-1.32l-.18-1.08a1.08,1.08,0,0,0-.07-.84,3.25,3.25,0,0,0-.34-.44.78.78,0,0,1-.21-.29,3.45,3.45,0,0,1-.14-.34,3.73,3.73,0,0,0-.16-.35,1,1,0,0,0-.28-.3s-.1-.05-.18-.15a.79.79,0,0,0-.26-.2.33.33,0,0,1-.15-.07.52.52,0,0,0-.23-.08A2,2,0,0,0,25,.92,7.68,7.68,0,0,0,24.19.5C23.87.34,23.5.19,23.1,0A2.27,2.27,0,0,0,22,.12l-.33.11c-.24.19-.24.19-.33.33a1.41,1.41,0,0,0-.21.65c0,.21.07.34.24.54a3.1,3.1,0,0,0,.64.54,7.66,7.66,0,0,0,.93.54.68.68,0,0,0,.38.21,3,3,0,0,0,.53.09,1.59,1.59,0,0,1,.49.17,3.58,3.58,0,0,1,.48.29,5,5,0,0,1,.77.94,2.15,2.15,0,0,1,.3,1.31,4,4,0,0,0,0,.45c0,.22,0,.45,0,.7s0,.48,0,.7,0,.37,0,.46l-.79.94a2.17,2.17,0,0,1-.43.14l-.48.06a2.69,2.69,0,0,1-.55,0l-.46.1-.26,0a.48.48,0,0,1-.2,0l-.26-.07a3.27,3.27,0,0,1-.76.13l-.68,0c-.22,0-.42,0-.61,0a1,1,0,0,0-.5.2,4.42,4.42,0,0,0-.66.51c-.2.18-.3.32-.31.42s0,.15.14.22.3,0,.33.09a.06.06,0,0,0,.07,0,2.12,2.12,0,0,1,.87-.08c.41,0,.7,0,.87.05l1.48-.11,1.07-.07a4.65,4.65,0,0,1,.57,0,.76.76,0,0,1,.26-.12l.31,0c0,.12-.09.31-.16.56s-.15.52-.23.82-.18.59-.27.91-.19.61-.28.86a1.41,1.41,0,0,1-.32.58,2.14,2.14,0,0,0-.29.36,1.25,1.25,0,0,1-.08-.27,1.6,1.6,0,0,0-.1-.31,1.21,1.21,0,0,0-.17-.25.36.36,0,0,0-.24-.13,3.67,3.67,0,0,0-1-.27l-1-.14a1.68,1.68,0,0,0-1.07.2,8.26,8.26,0,0,1-1.11.52,3.71,3.71,0,0,0-1,.66A13.66,13.66,0,0,0,16.34,16a14.56,14.56,0,0,0-1.23,1.54A3.41,3.41,0,0,0,14.49,19a1.19,1.19,0,0,0,0,.38.53.53,0,0,0,.08.22m1.33.09a2,2,0,0,1,.13-.39c.08-.21.17-.42.27-.65l.41-.91.65-.56a10.45,10.45,0,0,1,1-.76,7.27,7.27,0,0,1,1.16-.64,2.14,2.14,0,0,1,1.13-.2,1,1,0,0,1,.63.33,2.13,2.13,0,0,1,.42.65,2.89,2.89,0,0,1,.22.69,1.67,1.67,0,0,1,0,.45v.71a.64.64,0,0,1-.19.35.62.62,0,0,0-.2.38c-.21.26-.44.54-.69.83s-.46.54-.62.75a1.15,1.15,0,0,1-.62.38c-.33.11-.67.21-1,.3s-.88.2-1.38.28a1,1,0,0,1-.58-.25,1.79,1.79,0,0,1-.34-.44l-.26-.49a.9.9,0,0,0-.24-.34Z"/><path class="cls-1" d="M41.11,46.71a4.17,4.17,0,0,0,.61-2c0-.47-.66-.71-2-.71a7.13,7.13,0,0,0-2.88.52,5.39,5.39,0,0,0-2,1.44,9.92,9.92,0,0,0-1.41,2.14l-1.31,2.62a8.33,8.33,0,0,1-1.79,2.4,17.52,17.52,0,0,1-2.72,2.15,15.46,15.46,0,0,1-3.11,1.53,8.59,8.59,0,0,1-2.94.58,5.82,5.82,0,0,1-2.72-.58,5,5,0,0,1-1.82-1.53,6.09,6.09,0,0,1-1-2.27,13.2,13.2,0,0,1-.28-2.79,16.11,16.11,0,0,1,1-5.4,24,24,0,0,1,2.55-5.19,34.73,34.73,0,0,1,7.56-8.22,15.79,15.79,0,0,0,6.2,4.67,21,21,0,0,0,7.81,1.34,27,27,0,0,0,3.9-.32A17.17,17.17,0,0,0,49.05,36a9.76,9.76,0,0,0,3.39-2.27A5.11,5.11,0,0,0,53.82,30a4.72,4.72,0,0,0-2.66-4.48,16.47,16.47,0,0,0-7.58-1.41,27.85,27.85,0,0,0-4.54.39,46.31,46.31,0,0,0-4.68,1A42.14,42.14,0,0,0,30,27a38.77,38.77,0,0,0-3.84,1.73,5.49,5.49,0,0,1-.42-1.57,16.42,16.42,0,0,1-.09-1.7A5.77,5.77,0,0,1,26.75,22a5.07,5.07,0,0,1,2.94-2.05v-.18a.17.17,0,0,0,.09-.07c0-.1.07-.19.1-.28a.13.13,0,0,0-.08-.17l-.33-.15a.42.42,0,0,0-.25,0,.81.81,0,0,0-.25.08.9.9,0,0,1-.28.13.39.39,0,0,1-.3,0,.32.32,0,0,1-.18-.18.88.88,0,0,1-.07-.29,1.4,1.4,0,0,1,0-.29.8.8,0,0,1,.05-.22,1,1,0,0,1,.25-.34,2.05,2.05,0,0,0,.25-.27c.11-.12.2-.22.28-.29a1,1,0,0,0,.22-.32l.09-.22c.07-.09.13-.18.2-.26a2.09,2.09,0,0,0,.16-.22l.11-.21.07-.15a2.74,2.74,0,0,1,.4-.7,4.46,4.46,0,0,0,.39-.69,1.87,1.87,0,0,0,.07-.22.65.65,0,0,0,0-.39l.4-.47a.87.87,0,0,0,0-.6.69.69,0,0,0-.39-.46,1.38,1.38,0,0,0-.58.06,9.14,9.14,0,0,0-1,.26,10.53,10.53,0,0,0-1,.36,1.18,1.18,0,0,0-.53.38l-.13.31a.65.65,0,0,0-.06.32.21.21,0,0,0,0,.13q.38.17.48.12a.24.24,0,0,1,.22,0,.44.44,0,0,1,.3.35.66.66,0,0,1,0,.38,1.83,1.83,0,0,1-.29.46c-.13.17-.27.33-.42.5l-.4.47a1.68,1.68,0,0,0-.25.35l-.07.17a1.38,1.38,0,0,1-.27.42,1.6,1.6,0,0,0-.27.43l-.39.91-.38.48-.16.37a.13.13,0,0,1,.07.17,1.61,1.61,0,0,1-.1.28l-.13.31a.63.63,0,0,0-.06.34,1.78,1.78,0,0,0,.07.39,1.27,1.27,0,0,0,.17.35.66.66,0,0,0,.24.21.71.71,0,0,0,.52-.08h0a2,2,0,0,0-.14.16A6.84,6.84,0,0,0,24.83,26a6.58,6.58,0,0,0,.16,1.6c.11.43.22.87.35,1.34a54,54,0,0,0-5.73,3.71,34.46,34.46,0,0,0-5.15,4.71,23.43,23.43,0,0,0-3.74,5.69,15.71,15.71,0,0,0-1.44,6.69,9.61,9.61,0,0,0,2.3,6.66A8.36,8.36,0,0,0,18.11,59a13.44,13.44,0,0,0,3.55-.48,22.17,22.17,0,0,0,3.39-1.25,22.69,22.69,0,0,0,3.14-1.79A26.78,26.78,0,0,0,31,53.27l.13.13q-1.61,2.43-3.49,5.44a44,44,0,0,1-4.19,5.63,23,23,0,0,1-5.12,4.38A11.55,11.55,0,0,1,12,70.61a21.74,21.74,0,0,1-2.72-.16A7,7,0,0,1,7,69.78a4,4,0,0,1-1.63-1.5,5.11,5.11,0,0,1-.61-2.66,4.87,4.87,0,0,1,.1-1c.06-.3.12-.6.16-.89,1.54-.35,2.31-1.2,2.31-2.57a2.82,2.82,0,0,0-1-2.49A3.86,3.86,0,0,0,4,58a3.29,3.29,0,0,0-3.1,1.6A7.09,7.09,0,0,0,0,63.25a6.67,6.67,0,0,0,1.05,3.81,8.24,8.24,0,0,0,2.69,2.53A11.73,11.73,0,0,0,7.42,71a19.79,19.79,0,0,0,4,.42,22.84,22.84,0,0,0,6.72-1,27.43,27.43,0,0,0,5.79-2.5,28.68,28.68,0,0,0,4.86-3.51,34.56,34.56,0,0,0,3.87-4,33,33,0,0,0,2.85-4,21.67,21.67,0,0,0,1.76-3.52,7,7,0,0,1,1-1.69c.5-.66,1-1.38,1.51-2.15s1-1.52,1.37-2.27M30.68,28.79a32.56,32.56,0,0,1,4.16-2,33.11,33.11,0,0,1,4.39-1.38,17.48,17.48,0,0,1,4-.51c2.52,0,4.24.38,5.16,1.12a3.73,3.73,0,0,1,1.37,3,5.05,5.05,0,0,1-.86,2.79,8.28,8.28,0,0,1-2.37,2.3,12.85,12.85,0,0,1-3.55,1.57,16.46,16.46,0,0,1-4.42.57A14.13,14.13,0,0,1,32.28,35a14.7,14.7,0,0,1-4.89-4,21.83,21.83,0,0,1,3.29-2.28"/><path class="cls-1" d="M194.66,53.21q-1.92,2.68-4.32,5.5A54.05,54.05,0,0,1,185.16,64a42.86,42.86,0,0,1-5.79,4.39,24.61,24.61,0,0,1-6.08,2.78q3.51-5.82,6.75-11.74t6.69-11.88l-6.27.26a35.07,35.07,0,0,1-1.6,3.14c-.73,1.28-1.56,2.68-2.5,4.22a51.53,51.53,0,0,1-3.71,5.34,50,50,0,0,1-4.06,4.58,26.77,26.77,0,0,1-3.81,3.17,5.82,5.82,0,0,1-2.95,1.18,1.6,1.6,0,0,1-1.18-.48,1.7,1.7,0,0,1-.48-1.25c0-1.36,1-3.67,3-6.91s4.8-7.66,8.38-13.25l-6.78.26c-1.15,2-2.31,3.86-3.46,5.7-.74,1.18-1.42,2.31-2.07,3.42a4.18,4.18,0,0,1-1.51.29A2.43,2.43,0,0,1,155,54.49a8.45,8.45,0,0,1,1-4.07,35.75,35.75,0,0,1,2.24-3.61l-3,.12a10.39,10.39,0,0,0-2,.29,4.88,4.88,0,0,0-1.44.64A9.36,9.36,0,0,0,150.51,49,8.75,8.75,0,0,1,149.1,50a24.26,24.26,0,0,0-2.37,1.76q-1.41,1.16-3.29,3a54,54,0,0,0-4.32,4.84l-.13-.13,8.45-11.91-7.3.26q-3.33,5.76-6.69,11.33l-1,1.72c-.69.69-1.37,1.38-2.08,2a27.17,27.17,0,0,1-6.49,4.67,13.51,13.51,0,0,1-5.92,1.61,5.44,5.44,0,0,1-4.29-1.73A6.47,6.47,0,0,1,112.11,63a9.81,9.81,0,0,1,.32-2.31l2.95-.64q1.78-.37,3.84-1c1.36-.38,2.74-.83,4.12-1.34A21,21,0,0,0,127.09,56a10.77,10.77,0,0,0,2.72-2.31,4.33,4.33,0,0,0,1.05-2.81,3.42,3.42,0,0,0-1.53-3,7.56,7.56,0,0,0-4.29-1,15.9,15.9,0,0,0-6.37,1.47,25.11,25.11,0,0,0-6.17,3.84,22.44,22.44,0,0,0-4.68,5.37,12.67,12.67,0,0,0-1.6,3.83c-.93,1-1.86,2-2.81,3a29.74,29.74,0,0,1-4.93,4.09,7.55,7.55,0,0,1-3.64,1.47c-.94,0-1.41-.57-1.41-1.72A9.61,9.61,0,0,1,94.9,63.8q1.47-2.65,4-6.69l19.77-31.49-7.1.39L93.68,55.32q-1.4,2.34-2.42,4.2c-1.46,1.67-2.93,3.27-4.42,4.76a30.16,30.16,0,0,1-4.93,4.09,7.58,7.58,0,0,1-3.65,1.47c-.94,0-1.41-.57-1.41-1.72a9.53,9.53,0,0,1,1.48-4.32q1.47-2.65,4-6.69l19.78-31.49L95,26,77.11,55.32Q75.52,58,74.41,60l-.6.68c-.83.94-1.65,1.82-2.46,2.63a37,37,0,0,1-5.5,4.73,8.26,8.26,0,0,1-4.16,1.79,1.41,1.41,0,0,1-1.6-1.6,7.54,7.54,0,0,1,.67-2.78,29.55,29.55,0,0,1,1.76-3.52q1.08-1.89,2.4-3.9c.87-1.35,1.74-2.65,2.59-3.91s1.64-2.43,2.37-3.52a26,26,0,0,0,1.66-2.78l-6.65.39-1.6,2.55a7,7,0,0,0-2.11-3,5.77,5.77,0,0,0-3.52-1,14.19,14.19,0,0,0-6.18,1.56,22.84,22.84,0,0,0-5.86,4.1,24.27,24.27,0,0,0-4.35,5.66,12.91,12.91,0,0,0-1.72,6.28A10.62,10.62,0,0,0,39.86,67a7.23,7.23,0,0,0,1,2.24,4.74,4.74,0,0,0,1.76,1.56,5.45,5.45,0,0,0,2.62.58,10.06,10.06,0,0,0,5.38-1.54,20.08,20.08,0,0,0,4.48-3.77h.12a2.39,2.39,0,0,0-.19.7,7.27,7.27,0,0,0-.06,1,3.39,3.39,0,0,0,1.12,2.59,4.4,4.4,0,0,0,3.17,1.06,10.77,10.77,0,0,0,5.92-1.95,39.21,39.21,0,0,0,6-5c.69-.69,1.33-1.36,2-2-.05.09-.09.18-.13.27a10.87,10.87,0,0,0-1.32,4.51q0,3.84,4.36,3.84A10.64,10.64,0,0,0,82,69.14a41.12,41.12,0,0,0,6.56-5.63c.44-.44.88-.91,1.32-1.4l-.26.54a11,11,0,0,0-1.31,4.51q0,3.84,4.35,3.84a10.68,10.68,0,0,0,5.92-1.86,41.57,41.57,0,0,0,6.56-5.63c.29-.29.59-.61.88-.92,0,.32,0,.65,0,1a7.36,7.36,0,0,0,7.87,7.81,22.15,22.15,0,0,0,7.65-1.5A27.44,27.44,0,0,0,130,64.41l.8-.76c-1.32,2.23-2.64,4.46-3.94,6.71l6.46-.19c.94-1.75,2-3.56,3.17-5.41a62.5,62.5,0,0,1,3.84-5.41,53,53,0,0,1,4.51-5,35.46,35.46,0,0,1,5.12-4.16l.13.13a5.62,5.62,0,0,0-1,3.13,5.12,5.12,0,0,0,1.47,4,5.78,5.78,0,0,0,4,1.34,10.51,10.51,0,0,0,4.05-.78l-.43.75c-.92,1.64-1.67,3.15-2.27,4.51a9.29,9.29,0,0,0-.9,3.65,4.6,4.6,0,0,0,.93,2.88A3.59,3.59,0,0,0,159,71a8.75,8.75,0,0,0,4-1,22.64,22.64,0,0,0,3.78-2.46,29.22,29.22,0,0,0,3.23-3c1-1,1.76-2,2.4-2.72l.13.13q-1.41,2.37-3.08,5.31t-3.55,6c-1.26,2-2.62,4-4.09,6a38.07,38.07,0,0,1-4.71,5.18,22,22,0,0,1-5.37,3.65,14.05,14.05,0,0,1-6.15,1.38,7.32,7.32,0,0,1-5.15-1.92,6.9,6.9,0,0,1-2.08-5.32,7.76,7.76,0,0,1,1.51-4.86,5,5,0,0,1,4.25-2,7.22,7.22,0,0,1,1.15.06v-.57a8.31,8.31,0,0,0-1.31-.2c-.53,0-1-.06-1.57-.06A14.41,14.41,0,0,0,139,75a9.28,9.28,0,0,0-3,1.28,6.72,6.72,0,0,0-2.11,2.2,6.24,6.24,0,0,0-.8,3.27,7.43,7.43,0,0,0,1,4,7.93,7.93,0,0,0,2.69,2.62,11.85,11.85,0,0,0,3.84,1.41,23.55,23.55,0,0,0,4.48.41,26.79,26.79,0,0,0,8.64-1.37A29.71,29.71,0,0,0,161.2,85a35,35,0,0,0,6.33-5.76A49.08,49.08,0,0,0,172.71,72a23.66,23.66,0,0,0,6.15-2.56,41.6,41.6,0,0,0,6-4.26,52.38,52.38,0,0,0,5.53-5.43,67.77,67.77,0,0,0,4.8-6.12ZM57.18,61.88a32.36,32.36,0,0,1-2.63,3.55,16.18,16.18,0,0,1-2.84,2.65,5.39,5.39,0,0,1-2.82,1.13,2.52,2.52,0,0,1-2.59-1.38,7.86,7.86,0,0,1-.61-3.23,11.12,11.12,0,0,1,.51-3,25,25,0,0,1,1.41-3.68,27.12,27.12,0,0,1,2.14-3.75,27.67,27.67,0,0,1,2.63-3.29,13,13,0,0,1,2.88-2.37,5.74,5.74,0,0,1,3-.9,2.81,2.81,0,0,1,2.5,1,4.88,4.88,0,0,1,.64,2.69,10.54,10.54,0,0,1-.55,3,28.75,28.75,0,0,1-1.47,3.74,34.87,34.87,0,0,1-2.17,3.94m59.89-9.67a19.17,19.17,0,0,1,3.49-3.29A6,6,0,0,1,124,47.57a1.9,1.9,0,0,1,1.24.39,1.55,1.55,0,0,1,.48,1.28,6.06,6.06,0,0,1-1.08,3.23,14,14,0,0,1-2.92,3.2,22,22,0,0,1-4.19,2.69,19.34,19.34,0,0,1-5,1.69,14.72,14.72,0,0,1,1.63-3.74,30.64,30.64,0,0,1,2.88-4.1"/></g></g></svg>