<svg xmlns="http://www.w3.org/2000/svg" xmlns:xlink="http://www.w3.org/1999/xlink" version="1.1" viewBox="0 0 109 110">
<g transform="translate(-200 -70)">
	<path class="st2" d="M229.8,150.4c-0.4,0.1-0.8,0.4-1.1,0.7c-0.3,0.4-0.4,0.8-0.4,1.2c0,0.2,0,0.4,0,0.6c0,0.2,0.1,0.4,0.1,0.6   c0.4-0.2,0.9-0.4,1.4-0.6c0.5-0.2,1-0.4,1.6-0.5c0.6-0.1,1.1-0.3,1.7-0.4c0.6-0.1,1.1-0.1,1.6-0.1c1.2,0,2.1,0.2,2.7,0.5   c0.6,0.3,1,0.9,1,1.6c0,0.5-0.2,1-0.5,1.3c-0.3,0.3-0.7,0.6-1.2,0.8c-0.5,0.2-1,0.3-1.5,0.4c-0.5,0.1-1,0.1-1.4,0.1   c-1.1,0-2-0.2-2.8-0.5c-0.8-0.3-1.6-0.9-2.2-1.7c-0.5,0.4-1,0.8-1.4,1.3c-0.5,0.5-0.9,1.1-1.3,1.7c-0.4,0.6-0.7,1.2-0.9,1.9   c-0.2,0.7-0.3,1.3-0.3,2c0,0.4,0,0.7,0.1,1c0.1,0.3,0.2,0.6,0.4,0.8c0.2,0.2,0.4,0.4,0.7,0.6c0.3,0.1,0.6,0.2,1,0.2   c0.3,0,0.7-0.1,1.1-0.2c0.4-0.1,0.8-0.3,1.1-0.6c0.4-0.2,0.7-0.5,1-0.8c0.3-0.3,0.5-0.6,0.6-0.9c0.2-0.3,0.3-0.7,0.5-0.9   c0.1-0.3,0.3-0.6,0.5-0.8c0.2-0.2,0.4-0.4,0.7-0.5c0.3-0.1,0.6-0.2,1-0.2c0.5,0,0.7,0.1,0.7,0.3c0,0.2-0.1,0.4-0.2,0.7   c-0.1,0.3-0.3,0.5-0.5,0.8c-0.2,0.3-0.4,0.5-0.5,0.8c-0.2,0.2-0.3,0.4-0.4,0.6c-0.1,0.4-0.4,0.8-0.6,1.3c-0.3,0.5-0.6,1-1,1.5   c-0.4,0.5-0.9,1-1.4,1.5c-0.5,0.5-1.1,0.9-1.8,1.3c-0.6,0.4-1.3,0.7-2.1,0.9c-0.8,0.2-1.6,0.3-2.4,0.3c-0.5,0-0.9,0-1.4-0.2   c-0.5-0.1-0.9-0.3-1.3-0.5c-0.4-0.2-0.7-0.5-1-0.9c-0.3-0.4-0.4-0.8-0.4-1.4c0-0.5,0.1-0.9,0.3-1.3c0.2-0.4,0.6-0.6,1.1-0.6   c0.3,0,0.6,0.1,0.8,0.3c0.2,0.2,0.4,0.5,0.4,0.9c0,0.5-0.3,0.8-0.8,0.9c0,0.1,0,0.2-0.1,0.3c0,0.1,0,0.2,0,0.3c0,0.4,0.1,0.7,0.2,1   c0.1,0.2,0.3,0.4,0.6,0.5c0.2,0.1,0.5,0.2,0.8,0.2c0.3,0,0.6,0.1,1,0.1c0.8,0,1.6-0.2,2.3-0.6c0.7-0.4,1.3-0.9,1.8-1.6   c0.6-0.6,1.1-1.3,1.5-2c0.5-0.7,0.9-1.4,1.3-2l0,0c-0.3,0.3-0.6,0.5-1,0.8s-0.7,0.5-1.1,0.6c-0.4,0.2-0.8,0.3-1.2,0.5   c-0.4,0.1-0.9,0.2-1.3,0.2c-1,0-1.8-0.3-2.4-0.9c-0.6-0.6-0.8-1.4-0.8-2.4c0-0.9,0.2-1.7,0.5-2.4c0.3-0.7,0.8-1.4,1.4-2.1   c0.6-0.6,1.2-1.2,1.9-1.7c0.7-0.5,1.4-1,2.1-1.3c0-0.2-0.1-0.3-0.1-0.5c0-0.2-0.1-0.3-0.1-0.6c0-0.6,0.2-1.1,0.5-1.5   c0.3-0.4,0.7-0.7,1.3-0.9V150.4z M237,153.7c0-0.5-0.2-0.8-0.5-1.1c-0.3-0.3-0.9-0.4-1.9-0.4c-0.4,0-0.9,0.1-1.4,0.2   c-0.5,0.1-1.1,0.3-1.6,0.5c-0.5,0.2-1,0.4-1.5,0.7c-0.5,0.3-0.9,0.5-1.2,0.8c0.5,0.6,1.1,1.1,1.8,1.4c0.6,0.3,1.4,0.5,2.3,0.5   c0.6,0,1.1-0.1,1.6-0.2c0.5-0.1,0.9-0.3,1.3-0.6c0.4-0.2,0.6-0.5,0.9-0.8C236.9,154.4,237,154.1,237,153.7"/>
	<path class="st2" d="M242.5,160.6l2.4-0.1c-0.1,0.3-0.3,0.6-0.6,1c-0.3,0.4-0.5,0.8-0.9,1.3c-0.3,0.5-0.6,0.9-0.9,1.4   c-0.3,0.5-0.6,1-0.9,1.4c-0.3,0.5-0.5,0.9-0.6,1.3c-0.2,0.4-0.2,0.7-0.2,1c0,0.4,0.2,0.6,0.6,0.6c0.4,0,0.9-0.2,1.5-0.6   c0.6-0.4,1.3-1,2-1.7c0.3-0.3,0.6-0.6,0.9-0.9c0.3-0.3,0.6-0.7,0.9-1c0.3-0.3,0.5-0.6,0.8-0.9c0.2-0.3,0.4-0.5,0.6-0.7l0.2,0.1   c-0.4,0.5-0.9,1.1-1.4,1.8s-1.2,1.4-1.9,2.1s-1.5,1.3-2.2,1.8c-0.7,0.5-1.4,0.7-2.1,0.7c-0.5,0-0.9-0.1-1.1-0.4   c-0.3-0.3-0.4-0.6-0.4-0.9c0-0.1,0-0.2,0-0.3c0-0.1,0-0.2,0.1-0.3h0c-0.5,0.5-1,1-1.6,1.4c-0.6,0.4-1.2,0.6-1.9,0.6   c-0.4,0-0.7-0.1-0.9-0.2c-0.3-0.1-0.5-0.3-0.6-0.6c-0.2-0.2-0.3-0.5-0.4-0.8c-0.1-0.3-0.1-0.6-0.1-0.9c0-0.8,0.2-1.5,0.6-2.3   c0.4-0.8,0.9-1.4,1.6-2c0.6-0.6,1.3-1.1,2.1-1.5c0.8-0.4,1.5-0.6,2.2-0.6c0.5,0,1,0.1,1.3,0.3c0.3,0.2,0.6,0.6,0.8,1.1L242.5,160.6   z M235.6,166.5c0,0.4,0.1,0.8,0.2,1.2c0.1,0.3,0.5,0.5,0.9,0.5c0.3,0,0.7-0.2,1-0.4c0.4-0.3,0.7-0.6,1-1c0.3-0.4,0.6-0.8,0.9-1.3   c0.3-0.5,0.6-0.9,0.8-1.4c0.2-0.5,0.4-0.9,0.5-1.4c0.1-0.4,0.2-0.8,0.2-1.1c0-0.4-0.1-0.7-0.2-1c-0.2-0.2-0.5-0.3-0.9-0.3   c-0.4,0-0.7,0.1-1.1,0.3c-0.4,0.2-0.7,0.5-1,0.9c-0.3,0.4-0.6,0.8-0.9,1.2c-0.3,0.4-0.6,0.9-0.8,1.3c-0.2,0.5-0.4,0.9-0.5,1.3   C235.6,165.8,235.6,166.2,235.6,166.5"/>
	<path class="st2" d="M255.9,152.5l-7.1,11.4c-0.6,1-1.1,1.8-1.4,2.4c-0.4,0.6-0.5,1.2-0.5,1.6c0,0.4,0.2,0.6,0.5,0.6   c0.3,0,0.8-0.2,1.3-0.5c0.6-0.4,1.1-0.8,1.8-1.5c0.6-0.6,1.2-1.2,1.7-1.9c0.6-0.7,1.1-1.3,1.7-2.1l0.2,0.1   c-0.2,0.2-0.4,0.5-0.6,0.8c-0.2,0.3-0.5,0.6-0.8,0.9c-0.3,0.3-0.5,0.6-0.8,0.9c-0.3,0.3-0.5,0.6-0.8,0.9c-0.9,0.9-1.7,1.6-2.4,2   c-0.7,0.4-1.4,0.7-2.1,0.7c-1,0-1.6-0.5-1.6-1.4c0-0.4,0.2-1,0.5-1.6c0.3-0.7,0.8-1.5,1.5-2.6l6.4-10.6L255.9,152.5z"/>
	<path class="st2" d="M261.9,152.5l-7.1,11.4c-0.6,1-1.1,1.8-1.4,2.4c-0.4,0.6-0.5,1.2-0.5,1.6c0,0.4,0.2,0.6,0.5,0.6   c0.3,0,0.8-0.2,1.3-0.5c0.6-0.4,1.1-0.8,1.8-1.5c0.6-0.6,1.2-1.2,1.7-1.9c0.6-0.7,1.1-1.3,1.7-2.1l0.2,0.1   c-0.2,0.2-0.4,0.5-0.6,0.8c-0.2,0.3-0.5,0.6-0.8,0.9c-0.3,0.3-0.5,0.6-0.8,0.9c-0.3,0.3-0.5,0.6-0.8,0.9c-0.9,0.9-1.7,1.6-2.4,2   c-0.7,0.4-1.4,0.7-2.1,0.7c-1,0-1.6-0.5-1.6-1.4c0-0.4,0.2-1,0.5-1.6c0.3-0.7,0.8-1.5,1.5-2.6l6.4-10.6L261.9,152.5z"/>
	<path class="st2" d="M269.5,162.5c-0.5,0.6-1,1.3-1.5,1.9c-0.5,0.6-1.2,1.3-2,2c-1.1,1-2.1,1.6-3.1,2c-1,0.4-1.9,0.5-2.8,0.5   c-0.9,0-1.6-0.3-2.1-0.8c-0.5-0.5-0.8-1.2-0.8-2c0-0.7,0.2-1.5,0.7-2.2c0.4-0.7,1-1.4,1.7-1.9c0.7-0.6,1.4-1,2.2-1.4   c0.8-0.4,1.6-0.5,2.3-0.5c0.7,0,1.2,0.1,1.5,0.4c0.4,0.3,0.6,0.6,0.6,1.1c0,0.4-0.1,0.7-0.4,1c-0.3,0.3-0.6,0.6-1,0.8   c-0.4,0.2-0.9,0.5-1.4,0.6c-0.5,0.2-1,0.3-1.5,0.5c-0.5,0.1-1,0.3-1.4,0.3c-0.4,0.1-0.8,0.2-1.1,0.2c-0.1,0.3-0.1,0.6-0.1,0.8   c0,0.7,0.2,1.2,0.6,1.6c0.4,0.4,0.9,0.6,1.5,0.6c0.6,0,1.4-0.2,2.1-0.6c0.8-0.4,1.6-0.9,2.3-1.7c0.6-0.6,1.2-1.2,1.7-1.8   c0.6-0.6,1-1.2,1.5-1.7L269.5,162.5z M264.5,161c0-0.2-0.1-0.4-0.2-0.5c-0.1-0.1-0.3-0.1-0.5-0.1c-0.4,0-0.8,0.2-1.2,0.5   c-0.4,0.3-0.9,0.7-1.3,1.2c-0.4,0.5-0.7,1-1,1.5c-0.3,0.5-0.5,1-0.6,1.4c0.6-0.1,1.2-0.3,1.8-0.6c0.6-0.3,1.1-0.6,1.5-1   c0.4-0.4,0.8-0.7,1.1-1.2C264.3,161.7,264.5,161.3,264.5,161"/>
	<path class="st2" d="M264.9,168.6c0.8-1.4,1.6-2.7,2.4-4c0.8-1.3,1.6-2.7,2.4-4.1l2.6-0.1l-3,4.3l0,0c0.6-0.7,1.1-1.3,1.6-1.7   c0.5-0.4,0.9-0.8,1.2-1.1c0.3-0.3,0.6-0.5,0.9-0.6c0.2-0.1,0.4-0.3,0.5-0.4c0.2-0.2,0.3-0.3,0.5-0.4c0.1-0.1,0.3-0.2,0.5-0.2   c0.2-0.1,0.4-0.1,0.7-0.1c0.3,0,0.6,0,1.1,0c-0.3,0.4-0.6,0.9-0.8,1.3c-0.2,0.5-0.4,0.9-0.4,1.5c0,0.7,0.3,1,1,1   c0.2,0,0.4,0,0.6-0.1c0.2-0.1,0.4-0.2,0.6-0.3c0.2-0.1,0.4-0.3,0.5-0.4c0.2-0.2,0.3-0.3,0.5-0.5l0.1,0.1c-0.4,0.5-0.9,1-1.5,1.3   c-0.6,0.3-1.2,0.5-1.9,0.5c-0.6,0-1.1-0.2-1.5-0.5s-0.5-0.8-0.5-1.4c0-0.4,0.1-0.8,0.3-1.1l0,0c-0.6,0.4-1.3,0.9-1.8,1.5   c-0.6,0.6-1.1,1.2-1.6,1.8c-0.5,0.6-1,1.3-1.4,2c-0.4,0.7-0.8,1.3-1.1,2L264.9,168.6z"/>
	<path class="st2" d="M271.5,170.4c-0.1,0-0.2,0-0.4,0c-0.7,0-1.2,0.2-1.5,0.7c-0.4,0.5-0.5,1.1-0.5,1.8c0,0.8,0.3,1.5,0.8,1.9   c0.5,0.5,1.1,0.7,1.9,0.7c0.8,0,1.5-0.2,2.2-0.5c0.7-0.3,1.3-0.8,1.9-1.3c0.6-0.5,1.2-1.2,1.7-1.9c0.5-0.7,1-1.4,1.5-2.2   c0.5-0.7,0.9-1.5,1.3-2.2c0.4-0.7,0.8-1.3,1.1-1.9l0,0c-0.2,0.3-0.5,0.6-0.9,1c-0.3,0.4-0.7,0.7-1.2,1.1c-0.4,0.3-0.9,0.6-1.4,0.9   c-0.5,0.2-1,0.4-1.5,0.4c-0.5,0-0.9-0.1-1.1-0.4c-0.2-0.3-0.3-0.6-0.3-1c0-0.4,0.1-0.8,0.3-1.3c0.2-0.5,0.5-1,0.8-1.6   c0.3-0.6,0.7-1.2,1.1-1.9c0.4-0.7,0.8-1.3,1.2-2.1l2.4-0.1c-1.3,2-2.3,3.6-3,4.8c-0.7,1.2-1.1,2-1.1,2.5c0,0.2,0.1,0.3,0.2,0.5   c0.1,0.1,0.3,0.2,0.4,0.2c0.3,0,0.6-0.1,1.1-0.4c0.4-0.3,0.9-0.7,1.4-1.1c0.5-0.5,1-1,1.5-1.7c0.5-0.6,0.9-1.3,1.3-1.9   c0.3-0.6,0.6-1.1,0.9-1.5c0.3-0.5,0.5-0.8,0.6-1.1l2.3-0.1c-0.8,1.4-1.6,2.9-2.4,4.3c-0.8,1.4-1.6,2.8-2.4,4.2   c0.7-0.2,1.5-0.6,2.2-1c0.7-0.5,1.4-1,2.1-1.6c0.7-0.6,1.3-1.2,1.9-1.9c0.6-0.7,1.1-1.3,1.6-2l0.2,0.2c-0.5,0.8-1.1,1.5-1.7,2.2   c-0.6,0.7-1.3,1.4-2,2c-0.7,0.6-1.4,1.1-2.2,1.5c-0.7,0.4-1.5,0.7-2.2,0.9c-0.6,0.9-1.2,1.8-1.9,2.6c-0.7,0.8-1.5,1.5-2.3,2.1   c-0.8,0.6-1.7,1-2.7,1.4c-1,0.3-2,0.5-3.1,0.5c-0.6,0-1.1-0.1-1.6-0.1c-0.5-0.1-1-0.3-1.4-0.5c-0.4-0.2-0.7-0.6-1-0.9   c-0.2-0.4-0.4-0.9-0.4-1.4c0-0.5,0.1-0.9,0.3-1.2c0.2-0.3,0.4-0.6,0.8-0.8c0.3-0.2,0.7-0.4,1.1-0.5c0.4-0.1,0.8-0.2,1.3-0.2   c0.2,0,0.4,0,0.6,0c0.2,0,0.3,0,0.5,0.1V170.4z"/>
	<path class="st2" d="M267.6,113.7c1.9-0.8,3.7-1.8,5.2-3.1c1.5-1.3,2.8-2.8,3.9-4.4c1-1.7,1.8-3.5,2.4-5.5c0.5-2,0.8-4.1,0.8-6.2   c0-3.4-0.6-6.4-1.7-9.1c-1.1-2.7-2.7-5-4.8-6.8c-2.1-1.9-4.6-3.3-7.6-4.3c-3-1-6.3-1.5-10.1-1.5h-16.8l-4,11.5h18.8   c1.8,0,3.3,0.2,4.8,0.7c1.4,0.5,2.6,1.2,3.6,2.1c1,0.9,1.7,2,2.3,3.3c0.5,1.3,0.8,2.8,0.8,4.3c0,3.3-1,5.8-3,7.7   c-2,1.8-4.8,2.7-8.4,2.7h-12.4l-12.3,35.5h10.9l8.2-24.6h6.1l12.6,24.6h14.7L267.6,113.7z"/>
</g>
</svg>