<?xml version="1.0" encoding="utf-8"?>
<svg version="1.1" id="Layer_1" x="0px" y="0px" viewBox="0 0 88.5 110" style="enable-background:new 0 0 88.5 110;" xmlns="http://www.w3.org/2000/svg">
  <style type="text/css">
	.st0{fill:#686868;}
</style>
  <g transform="translate(-200 -70)">
    <path class="st0" d="M263.9,136.2c3-1.3,5.9-2.9,8.3-5s4.5-4.5,6.3-7.1c1.6-2.7,2.9-5.6,3.9-8.8c0.8-3.2,1.3-6.6,1.3-10 c0-5.5-1-10.3-2.7-14.6s-4.3-8-7.7-10.9c-3.4-3-7.4-5.3-12.2-6.9c-4.8-1.6-10.1-2.4-16.2-2.4h-27L211.4,89h30.2 c2.9,0,5.3,0.3,7.7,1.1c2.2,0.8,4.2,1.9,5.8,3.4c1.6,1.4,2.7,3.2,3.7,5.3c0.8,2.1,1.3,4.5,1.3,6.9c0,5.3-1.6,9.3-4.8,12.4 c-3.2,2.9-7.7,4.3-13.5,4.3h-19.9l-19.7,57h17.5l13.2-39.5h9.8l20.2,39.5h23.6L263.9,136.2z" style="fill: rgb(255, 255, 255);"/>
  </g>
</svg>
