<?xml version="1.0" encoding="utf-8"?>
<!-- Generator: Adobe Illustrator 26.0.3, SVG Export Plug-In . SVG Version: 6.00 Build 0)  -->
<svg version="1.1" id="Layer_1" xmlns="http://www.w3.org/2000/svg" xmlns:xlink="http://www.w3.org/1999/xlink" x="0px" y="0px"
	 viewBox="0 0 718 958" style="enable-background:new 0 0 718 958;" xml:space="preserve">
<style type="text/css">
	.st0{fill:#C6BEB3;}
	.st1{fill:#EAE3D8;}
	.st2{fill:#EDE9E4;}
	.st3{fill:#D3CCC5;}
	.st4{fill:#DDB1AB;}
	.st5{fill:#D6ABAA;}
	.st6{fill:#3F3D3A;}
	.st7{fill:#FFFFFF;}
	.st8{fill:#FFFAF3;}
</style>
<g>
	<path class="st0" d="M449.7,306.8c7.2-27.6,2.4-57-5.1-84.6c-7.5-27.6-17.6-54.6-21.1-83c-2.2-17.7-1.8-35.7-0.1-53.5
		c1.9-19.3,5.6-38.8,15.5-55.4c1-1.8,2.3-3.6,4.1-4.4c4.4-2,9,2.3,11.8,6.3c8.8,13.1,14.5,28.1,20,42.9c11.3,30.2,22.8,61.1,24,93.4
		c0.8,23.8-4,47.3-6,71.1c-2,23.7-0.7,48.7,11.1,69.4L449.7,306.8z"/>
	<path class="st1" d="M97.2,837c-16,3.6-26.7,22.2-21.9,37.9c4.9,15.6,24.3,24.9,39.5,18.8c-2.9,13,9,25.5,22.1,28.5
		c16.5,3.8,34.5-4,44.3-17.8c20.1-28.4,2.9-64.6-21.3-84.2C144.8,807.9,88.3,805.7,97.2,837z"/>
	<path class="st2" d="M416.6,306.8c7.2-27.6,2.4-57-5.1-84.6c-7.5-27.6-17.6-54.6-21.1-83c-2.2-17.7-1.8-35.7-0.1-53.5
		c1.9-19.3,5.6-38.8,15.5-55.4c1-1.8,2.3-3.6,4.1-4.4c4.4-2,9,2.3,11.8,6.3c8.8,13.1,14.5,28.1,20,42.9c11.3,30.2,22.8,61.1,24,93.4
		c0.8,23.8-4,47.3-6,71.1c-2,23.7-0.7,48.7,11.1,69.4L416.6,306.8z"/>
	<path class="st2" d="M544.3,501.3c-4.3-11.2-9.6-22.5-18.1-31.4c-13.8-14.4-34.9-21.2-55.6-22.5c-20.7-1.3-81.8,0.9-81.8,0.9
		c0.2,54-52,94-108.5,127.6c-48.5,28.9-83.9,64.6-113.3,111.1c-19.1,30.2-22.7,74.5-23.8,109.5c-1.2,36.5,8.1,76.8,39.4,99
		c17.7,12.6,39.7,21.6,62,21.6c131.6,0.1,278.1-193,292.5-243.6C552,620.8,563.3,550.6,544.3,501.3z"/>
	<path class="st3" d="M544.5,501.3c-4.3-11.2-9.6-22.5-18.1-31.4c-2.5-2.6-5.2-5-8.2-7.1c1.6,3.4,3,6.9,4.4,10.4
		c19,49.3,7.7,119.5-7.3,172.3C501,696.2,354.5,889.2,222.8,889.1c-22.3,0-44.3-9.1-62-21.6c-1.6-1.2-3.2-2.4-4.7-3.6
		c6.2,12.3,14.8,23.3,26.6,31.6c17.7,12.6,39.7,21.6,62,21.6c131.6,0.1,278.1-193,292.5-243.6C552.1,620.8,563.5,550.6,544.5,501.3z
		"/>
	<path class="st3" d="M404.4,690.2c-16.7-12.1-35.3-9.5-58-6.1c-26.5,3.9-91.7,33.1-92.7,118.4c-0.2,19.1-11.1,37.2-10.7,56.5
		c0.4,19.3,7.8,39.4,23.4,50.1c14.4,9.8,33.6,10,50,4.3c16.4-5.7,30.6-16.5,44-27.8c29.3-24.6,57.4-53.3,69.8-90
		C442.6,758.9,435.3,712.7,404.4,690.2z"/>
	<path class="st2" d="M203.9,822c-1.5-10.8,1.3-21.6,5-31.6c16.2-44.2,50.7-79,91.5-92.5c21.1-7,45.2-8,64.4,4.9
		c19.1,12.9,30.1,38.3,31.1,63.2c1,24.9-7,49.2-18.7,70.1c-11.7,20.9-27,38.8-42.3,56.5c28.7-14.2,61.5-18.2,92.7-11.3
		c7,1.5,14.1,3.8,19.6,8.9c5.5,5.1,8.9,13.9,6.5,21.3c-3.4,10.4-15.2,12.8-25,13.6c-63.9,5.3-128.1,9.3-192.3,4.9
		c-18-1.2-36.8-3.4-52.2-14.2c-19.9-13.9-31-40.3-33.4-66.3c-3.2-33.9,7.1-68.8,27.6-93.4c1-1.1,2-2.7,1.4-4.1
		c-0.6-1.4-3.2,0.2-1.9,1.1L203.9,822z"/>
	<path class="st2" d="M440.1,734.4c-5.9,18.9-1.4,39.2,1.2,58.8c4.6,34.5,3.2,69.8-4.1,103.8c-1.4,6.7-2.6,14.7,2.6,19.2
		c2.8,2.4,6.7,3,10.4,3.5c10.3,1.2,28.2,0.3,38.5,0.3c8.1,0,7.3-5.6,8.4-9.5c4.7-16.3-8.4-35.2-25.7-37.1c7.3-35.3,14.7-70.7,22-106
		c3.4-16.3,6.8-32.6,10.1-48.9c1.4-6.5,2.7-13.2,1.7-19.8c-1-6.6-5-13.1-11.4-15.5c-6.4-2.4-14.9,1.2-16.1,7.7L440.1,734.4z"/>
	<path class="st3" d="M442.3,571.3c1.7,23.7,10.8,46.4,23.2,66.7c0.8-3.4,2.5-6.5,4.9-9c5.7,32.7,20.8,63.6,43,88.2
		c29.1-60.4,26.4-135-6.8-193.2c-4.5-7.9-9.9-15.9-17.9-20.2C451.8,483.7,440.7,549,442.3,571.3z"/>
	<path class="st1" d="M465.8,604c2.4-5.2,5.7-9.9,9.7-13.8c-0.5,27.2,8.2,54.5,24.3,76.5c1.7-2.4,3.4-4.9,5.1-7.3
		c9.2,15.5,15.9,32.5,19.6,50.1c8.5-19,17-38.1,25.4-57.1c0.7,3.2,1.4,6.4,2.1,9.5c7.9-25.9,9-53.8,2.9-80.2
		c2.8,4.7,5.5,9.5,8.3,14.2c1.1-29.2-0.8-58.6-5.5-87.4c-2.1-12.7-5.1-26.2-14.4-35.2c-7.7-7.5-18.8-10.7-29.6-10.7
		C445,462.3,439.9,559.3,465.8,604z"/>
	<path class="st2" d="M636,389c-41.5-17.9-50.8-66.5-93.4-86c-17.5-8-51-11.9-70.3-11.9c-14,0-28.1,0.6-41.4,5
		c-21.9,7.2-39.7,24.2-51.4,44.1c-15.4,26.4-20.5,60.1-8.9,88.1c1.8,19.1,13.5,36.9,29,48.6c17.3,13.1,38.8,19.5,60.2,23
		c27.4,4.4,94.5,6.8,115.9-4.1c30.4-15.5,50.4-46.3,64.8-77.1C647.1,404.5,643.5,392.3,636,389z"/>
	<g>
		<path class="st3" d="M414.4,901c-0.4-0.1-0.7-0.2-1.1-0.2C413.6,900.9,414,901,414.4,901z"/>
		<path class="st3" d="M447.1,890.3c-5.5-5.1-12.6-7.4-19.6-8.9c-1.1-0.3-2.3-0.5-3.5-0.7c4.7,2.6,9.3,5.3,13.1,9.1
			c4.1,4.1,7,9.8,6.4,15.6c-0.6,5.8-5.3,11.3-11.1,11.4c-1.4,0-2.9-0.3-3.8-1.3c-0.9-0.9-1.2-2.3-1.6-3.5c-1.8-5.6-6.9-9.9-12.6-11
			c4.6,1.2,6,8.5,2.9,12.5c-3.3,4.3-9.2,5.6-14.6,6.3c-13.7,1.9-27.5,2.5-41.3,2.9c-26.6,0.8-53.2,0.9-79.8,1
			c-36.4,0.1-74.5-0.2-106.9-16.1c2.9,3.1,6.1,5.9,9.5,8.3c15.5,10.8,34.2,13,52.2,14.2c64.2,4.4,128.4,0.4,192.3-4.9
			c9.8-0.8,21.6-3.2,25-13.6C456.1,904.2,452.6,895.4,447.1,890.3z"/>
	</g>
	<path class="st3" d="M489.5,882.8c4.6,8.7,5.7,19.3,2.8,28.7c-0.4,1.2-1.2,2.6-2.4,2.5c-1.3-0.2-1.7-1.8-1.8-3.1
		c-0.4-3.9-1.2-7.8-3.1-11.3c-1.9-3.4-5.1-6.3-9-7.1c3.5,2.3,5.8,6.5,5.8,10.7c0.1,4.2-2.1,8.4-5.5,10.8c-2.7,1.9-6,2.7-9.3,3.2
		c-4.8,0.7-12.3,2.1-16.9,0.4c-2.6-0.9-6.1-3.2-7.7,0.2c2.4,1.1,5.1,1.5,7.8,1.8c10.3,1.2,28.2,0.3,38.5,0.3c8.1,0,7.3-5.6,8.4-9.5
		C499.9,900.8,496.4,890.2,489.5,882.8z"/>
	<path class="st4" d="M411,143.8c6.7,32.1,20.9,62.7,24.2,95.4c1.5,14.9,0.8,30.3,6.3,44.2c0.5,1.4,1.2,2.8,2.4,3.6
		c2.5,1.8,6.2,0.3,7.8-2.2c1.6-2.5,1.8-5.8,1.8-8.8c-0.1-21.1-4-42.1-2.9-63.1c0.7-12.8,3.3-25.5,3.9-38.3
		c1.1-24.4-5-48.5-11.1-72.2c-4.8-18.6-9.7-37.5-19.2-54.1c-6.9-12.1-10.5-2.2-12.4,6.3c-2.2,10-3.7,20.1-4.5,30.3
		C405.7,104.6,406.9,124.5,411,143.8z"/>
	<path class="st5" d="M443.1,242.8c-3.3-32.7-17.5-63.2-24.2-95.4c-4-19.3-5.3-39.2-3.8-58.9c0.8-10.2,2.3-20.3,4.5-30.3
		c0.9-4.1,2.2-8.5,4.1-10.6c-6.7-11-10.2-1.3-12,6.9c-2.2,10-3.7,20.1-4.5,30.3c-1.5,19.7-0.2,39.6,3.8,58.9
		c6.7,32.1,20.9,62.7,24.2,95.4c1.5,14.9,0.8,30.3,6.3,44.2c0.5,1.4,1.2,2.8,2.4,3.6c1.6,1.2,3.8,0.9,5.5-0.1
		C443.9,273.1,444.6,257.6,443.1,242.8z"/>
	<g>
		<path class="st3" d="M526.6,342.4c-5.9-7.4-15.2-12-24.7-12c-4.9,0-13.3,0-18.6,6.3c-3.1,3.7-2.7,12.1,1.7,14
			c0.5-0.5,16,6.1,16,6.1c6.8,7,14.6,12.9,23.2,17.5c1,0.6-0.1,0.6,1,0.6c2.9,0,6.9-2.8,7.5-5.6
			C534.9,359.9,532.5,349.8,526.6,342.4z"/>
		<path class="st6" d="M481.6,346.9c0,0,27.9-6.9,38.7,0.9c13.3,9.6,8.7,25.2,8.7,25.2s-7.9,12.1-27.1,6.2
			C488.8,375.2,481.6,346.9,481.6,346.9z"/>
		<path class="st7" d="M512.9,359.4c0.7,1.5,1.6,2.9,2.3,4.4c0.9,2.2,1.5,5.2,3.8,5.9c1.4,0.4,3-0.3,3.9-1.5
			c0.9-1.2,1.2-2.7,1.2-4.2c0.1-3.9-2.1-9-5.7-10.9C513.9,350.5,511,355,512.9,359.4z"/>
	</g>
	<path class="st1" d="M594.6,411.1c-1.3,3.5-1.6,7.4-1.4,11.2c0.3,6.7,2,13.6,6.3,18.8c4.2,5.2,11.3,8.4,17.9,6.7
		c5.4-1.4,9.6-5.8,12.8-10.4c4.5-6.3,8.2-13.8,7.9-21.6c-0.4-9.2-9.3-20.4-19.1-20.7C609.5,394.9,597.8,402.4,594.6,411.1z"/>
	<path class="st6" d="M636,389c-1.2-0.5-2.4-1.1-3.5-1.6c-4.5,0.4-9,2.4-12.3,5.3c-2.6,2.2-4.8,5.9-3.4,9.1c0.5,1.1,1.3,2,2.1,2.9
		c5.2,5.7,10.5,11.3,15.7,17c0.6,0.7,1.2,1.3,2,1.8c0.5,0.3,1,0.4,1.5,0.5c0.9-1.8,1.7-3.6,2.6-5.4C647.1,404.5,643.5,392.3,636,389
		z"/>
	<g>
		<path class="st3" d="M538.7,460.4c13.8-13,28.9-24.6,45-34.7c2.1-1.3,0.2-4.7-2-3.3c-16.3,10.2-31.7,22.1-45.7,35.3
			C534.2,459.4,536.9,462.1,538.7,460.4L538.7,460.4z"/>
	</g>
	<g>
		<path class="st3" d="M555.5,468.7c11.7-11.5,23.6-22.7,35.9-33.5c1.9-1.6-0.9-4.4-2.7-2.7c-12.3,10.8-24.3,22-35.9,33.5
			C551,467.7,553.7,470.4,555.5,468.7L555.5,468.7z"/>
	</g>
	<g>
		<path class="st3" d="M574.1,467.8c7.3-6.9,14.6-13.8,21.9-20.7c1.8-1.7-0.9-4.4-2.7-2.7c-7.3,6.9-14.6,13.8-21.9,20.7
			C569.6,466.8,572.3,469.5,574.1,467.8L574.1,467.8z"/>
	</g>
	<g>
		<path class="st8" d="M469.8,519.7c-3,7.1-4.3,14.7-3.6,22.4c0.1,1,0.8,1.9,1.9,1.9c1,0,2-0.9,1.9-1.9c-0.6-6.9,0.3-14,3.1-20.4
			c0.4-1,0.3-2.1-0.7-2.6C471.7,518.5,470.2,518.7,469.8,519.7L469.8,519.7z"/>
	</g>
	<g>
		<path class="st8" d="M478.4,539.6c-0.3,6.3-0.5,12.6-0.8,18.9c-0.1,2.5,3.8,2.5,3.9,0c0.3-6.3,0.5-12.6,0.8-18.9
			C482.4,537.1,478.5,537.1,478.4,539.6L478.4,539.6z"/>
	</g>
	<g>
		<path class="st8" d="M465.1,566.3c1.1,3.5,2.2,7,3.2,10.5c0.3,1,1.4,1.7,2.4,1.3c1-0.3,1.7-1.3,1.3-2.4c-1.1-3.5-2.2-7-3.2-10.5
			c-0.3-1-1.4-1.7-2.4-1.3C465.5,564.2,464.8,565.3,465.1,566.3L465.1,566.3z"/>
	</g>
	<g>
		<path class="st8" d="M493.4,596.2c0.7,5,2.1,9.8,4.1,14.4c0.4,1,1.8,1.2,2.6,0.7c1-0.6,1.1-1.7,0.7-2.6c-1.8-4.3-3-8.9-3.7-13.5
			c-0.1-1-1.5-1.6-2.4-1.3C493.6,594.1,493.2,595.2,493.4,596.2L493.4,596.2z"/>
	</g>
	<g>
		<path class="st8" d="M503.9,561.5c0.5,3.2,1,6.5,1.5,9.7c0.2,1,1.5,1.6,2.4,1.3c1.1-0.4,1.5-1.3,1.3-2.4c-0.5-3.2-1-6.5-1.5-9.7
			c-0.2-1-1.5-1.6-2.4-1.3C504.1,559.4,503.7,560.4,503.9,561.5L503.9,561.5z"/>
	</g>
	<g>
		<path class="st8" d="M496.5,537.1c0.5,2.6,0.9,5.3,1.4,7.9c0.2,1,1.4,1.7,2.4,1.3c1.1-0.3,1.5-1.3,1.3-2.4
			c-0.5-2.6-0.9-5.3-1.4-7.9c-0.2-1-1.4-1.7-2.4-1.3C496.8,535.1,496.3,536,496.5,537.1L496.5,537.1z"/>
	</g>
	<g>
		<path class="st8" d="M535.9,518c2.7,4.4,4.6,9.2,5.6,14.3c0.2,1,1.4,1.6,2.4,1.3c1.1-0.3,1.6-1.4,1.3-2.4
			c-1.1-5.4-3.1-10.5-6-15.2C537.9,513.9,534.6,515.9,535.9,518L535.9,518z"/>
	</g>
	<g>
		<path class="st8" d="M542.1,564.5c1.7,7.5,1.8,15.2,0.3,22.7c-0.5,2.4,3.3,3.5,3.7,1c1.6-8.2,1.5-16.6-0.3-24.8
			C545.3,561.1,541.6,562.1,542.1,564.5L542.1,564.5z"/>
	</g>
	<g>
		<path class="st8" d="M526.6,598.6c0.8,5.7,0.8,11.6,0,17.3c-0.2,1,0.3,2.1,1.3,2.4c0.9,0.2,2.2-0.3,2.4-1.3c0.9-6.4,1-12.9,0-19.3
			c-0.1-1-1.5-1.6-2.4-1.3C526.8,596.5,526.4,597.6,526.6,598.6L526.6,598.6z"/>
	</g>
	<g>
		<path class="st8" d="M496.7,635.2c0.9,4.6,3,8.8,5.9,12.4c0.6,0.8,2.1,0.7,2.7,0c0.8-0.8,0.7-1.9,0-2.7c0-0.1-0.5-0.6-0.3-0.4
			c-0.2-0.2-0.3-0.4-0.5-0.6c-0.3-0.4-0.6-0.9-0.9-1.3c-0.6-0.9-1.1-1.8-1.5-2.7c-0.1-0.2-0.2-0.5-0.3-0.7c0.1,0.3-0.2-0.4-0.2-0.4
			c-0.2-0.5-0.4-1-0.5-1.5c-0.3-1-0.6-2-0.8-3c-0.2-1-1.4-1.7-2.4-1.3C497,633.1,496.5,634.1,496.7,635.2L496.7,635.2z"/>
	</g>
	<g>
		<path class="st8" d="M513.7,651c1.7,6.7,3,13.4,3.8,20.3c0.1,1,0.8,1.9,1.9,1.9c0.9,0,2.1-0.9,1.9-1.9c-0.9-7.2-2.2-14.3-4-21.3
			C516.9,647.6,513.1,648.6,513.7,651L513.7,651z"/>
	</g>
	<g>
		<path class="st8" d="M532.5,643.7c1.8,5.5,2.4,11.5,1.5,17.2c-0.2,1,0.3,2.1,1.3,2.4c0.9,0.3,2.2-0.3,2.4-1.3
			c1-6.5,0.6-13.1-1.5-19.3C535.4,640.4,531.7,641.4,532.5,643.7L532.5,643.7z"/>
	</g>
	<g>
		<path class="st8" d="M92.1,869.8c0-0.4,0-0.9,0-1.3c0-0.2,0-0.4,0.1-0.5c-0.1,0.4,0-0.2,0.1-0.3c0.1-0.4,0.2-0.8,0.3-1.2
			c0.1-0.2,0.1-0.3,0.2-0.5c0-0.1,0.3-0.7,0.1-0.4c0.3-0.7,0.7-1.4,1.2-2.1c0.1-0.2,0.2-0.3,0.3-0.5c0.3-0.4-0.1,0.1,0.1-0.2
			c0.3-0.3,0.6-0.7,0.9-1c0.3-0.3,0.6-0.6,0.9-0.8c0.1,0,0.5-0.4,0.3-0.2c0.1-0.1,0.3-0.2,0.4-0.3c0.7-0.5,1.3-0.8,2.1-1.2
			c0.2-0.1,0.2-0.1,0,0c0.1,0,0.2-0.1,0.3-0.1c0.2-0.1,0.4-0.1,0.6-0.2c0.3-0.1,0.7-0.2,1.1-0.3c0.2-0.1,0.5-0.1,0.7-0.1
			c-0.3,0.1,0.1,0,0.2,0c0.4,0,0.9,0,1.3,0c1,0,1.9-0.9,1.9-1.9c0-1.1-0.9-1.9-1.9-1.9c-8-0.2-15.2,7.1-14.9,15.1
			c0,1,0.9,1.9,1.9,1.9C91.1,871.8,92.1,870.9,92.1,869.8L92.1,869.8z"/>
	</g>
	<g>
		<path class="st8" d="M101.5,849.4c4.3-2.8,9.9-2.8,14.2-0.2c2.1,1.3,4.1-2,2-3.3c-5.5-3.3-12.7-3.3-18.1,0.2
			c-0.9,0.6-1.2,1.7-0.7,2.6C99.4,849.6,100.6,849.9,101.5,849.4L101.5,849.4z"/>
	</g>
	<g>
		<path class="st8" d="M110.1,830.6c3.3-2.3,7.1-3.7,11.1-3.9c3-0.1,6.8,0.3,8.5,3.2c1.2,2.2,4.6,0.2,3.3-2
			c-2.2-3.9-6.9-5.2-11.1-5.1c-4.9,0-9.8,1.6-13.8,4.4c-0.9,0.6-1.2,1.7-0.7,2.6C107.9,830.7,109.2,831.2,110.1,830.6L110.1,830.6z"
			/>
	</g>
	<g>
		<path class="st8" d="M128.4,895.1c-2.3-2.9-2.3-7.3-0.8-10.5c1.7-3.6,4.9-6,8.4-7.6c-1-0.6-1.9-1.1-2.9-1.7c0,0.4-0.1,0.8-0.1,1.2
			c-0.1,1,1,1.9,1.9,1.9c1.1,0,1.8-0.9,1.9-1.9c0-0.4,0.1-0.8,0.1-1.2c0.1-1.6-1.7-2.2-2.9-1.7c-4.5,2-8.4,5.4-10.3,10
			c-2,4.7-1.4,10.2,1.8,14.2c0.6,0.8,2.1,0.7,2.7,0C129.2,897.1,129,896,128.4,895.1L128.4,895.1z"/>
	</g>
	<g>
		<path class="st8" d="M112.9,884.4c0.1-0.7,0,0.2,0-0.2c0-0.2,0.1-0.4,0.1-0.5c0.1-0.3,0.1-0.7,0.2-1c0.2-0.7,0.4-1.4,0.6-2
			c0.1-0.4,0.1-0.3,0.3-0.7c0.1-0.3,0.3-0.6,0.5-1c0.3-0.6,0.7-1.2,1.1-1.8c0.7-1,1.5-2,2.6-2.9c1-0.9,2-1.6,3.3-2.3
			c0.9-0.5,1.2-1.8,0.7-2.6c-0.5-0.9-1.7-1.2-2.6-0.7c-5.9,3.2-9.9,9.2-10.7,15.9c-0.1,1,1,1.9,1.9,1.9
			C112.1,886.4,112.7,885.5,112.9,884.4L112.9,884.4z"/>
	</g>
	<g>
		<path class="st8" d="M126,860c0.4-0.3,0.8-0.6,1.3-0.8c0.1,0,0.4-0.2,0,0c0.1,0,0.2-0.1,0.3-0.1c0.2-0.1,0.5-0.2,0.7-0.2
			c0.3-0.1,0.5-0.1,0.8-0.2c0,0,0.4-0.1,0.1,0c-0.3,0,0.2,0,0.2,0c0.5,0,1,0,1.5,0c0,0,0.4,0,0.1,0c-0.3,0,0.2,0,0.2,0
			c0.2,0,0.5,0.1,0.7,0.2c0.2,0.1,0.5,0.1,0.7,0.2c0.1,0,0.2,0.1,0.4,0.1c0.2,0.1-0.3-0.1,0,0c0.4,0.2,0.8,0.4,1.2,0.7
			c0,0,0.4,0.3,0.2,0.1c-0.2-0.2,0.2,0.2,0.2,0.2c0.2,0.2,0.4,0.4,0.6,0.6c0.7,0.7,2,0.8,2.7,0c0.7-0.8,0.7-1.9,0-2.7
			c-3.5-3.7-9.8-4.4-14-1.4c-0.8,0.6-1.3,1.7-0.7,2.6C123.9,860.1,125.2,860.6,126,860L126,860z"/>
	</g>
</g>
</svg>
