<?xml version="1.0" encoding="utf-8"?>
<svg version="1.1" id="Layer_1" x="0px" y="0px" viewBox="0 0 718 958" style="enable-background:new 0 0 718 958;" xmlns="http://www.w3.org/2000/svg">
  <style type="text/css">
	.st0{fill:#C6BEB3;}
	.st1{fill:#EAE3D8;}
	.st2{fill:#EDE9E4;}
	.st3{fill:#D3CCC5;}
	.st4{fill:#DDB1AB;}
	.st5{fill:#D6ABAA;}
	.st6{fill:#3F3D3A;}
	.st7{fill:#FFFFFF;}
	.st8{fill:#FFFAF3;}
</style>
  <g>
    <path class="st0" d="M449.7,306.8c7.2-27.6,2.4-57-5.1-84.6c-7.5-27.6-17.6-54.6-21.1-83c-2.2-17.7-1.8-35.7-0.1-53.5 c1.9-19.3,5.6-38.8,15.5-55.4c1-1.8,2.3-3.6,4.1-4.4c4.4-2,9,2.3,11.8,6.3c8.8,13.1,14.5,28.1,20,42.9c11.3,30.2,22.8,61.1,24,93.4 c0.8,23.8-4,47.3-6,71.1c-2,23.7-0.7,48.7,11.1,69.4L449.7,306.8z" style="fill: rgb(0, 0, 0);"/>
    <path class="st1" d="M97.2,837c-16,3.6-26.7,22.2-21.9,37.9c4.9,15.6,24.3,24.9,39.5,18.8c-2.9,13,9,25.5,22.1,28.5 c16.5,3.8,34.5-4,44.3-17.8c20.1-28.4,2.9-64.6-21.3-84.2C144.8,807.9,88.3,805.7,97.2,837z" style="fill: rgb(0, 0, 0);"/>
    <path class="st2" d="M416.6,306.8c7.2-27.6,2.4-57-5.1-84.6c-7.5-27.6-17.6-54.6-21.1-83c-2.2-17.7-1.8-35.7-0.1-53.5 c1.9-19.3,5.6-38.8,15.5-55.4c1-1.8,2.3-3.6,4.1-4.4c4.4-2,9,2.3,11.8,6.3c8.8,13.1,14.5,28.1,20,42.9c11.3,30.2,22.8,61.1,24,93.4 c0.8,23.8-4,47.3-6,71.1c-2,23.7-0.7,48.7,11.1,69.4L416.6,306.8z" style="fill: rgb(0, 0, 0);"/>
    <path class="st2" d="M544.3,501.3c-4.3-11.2-9.6-22.5-18.1-31.4c-13.8-14.4-34.9-21.2-55.6-22.5c-20.7-1.3-81.8,0.9-81.8,0.9 c0.2,54-52,94-108.5,127.6c-48.5,28.9-83.9,64.6-113.3,111.1c-19.1,30.2-22.7,74.5-23.8,109.5c-1.2,36.5,8.1,76.8,39.4,99 c17.7,12.6,39.7,21.6,62,21.6c131.6,0.1,278.1-193,292.5-243.6C552,620.8,563.3,550.6,544.3,501.3z" style="fill: rgb(0, 0, 0);"/>
    <path class="st3" d="M544.5,501.3c-4.3-11.2-9.6-22.5-18.1-31.4c-2.5-2.6-5.2-5-8.2-7.1c1.6,3.4,3,6.9,4.4,10.4 c19,49.3,7.7,119.5-7.3,172.3C501,696.2,354.5,889.2,222.8,889.1c-22.3,0-44.3-9.1-62-21.6c-1.6-1.2-3.2-2.4-4.7-3.6 c6.2,12.3,14.8,23.3,26.6,31.6c17.7,12.6,39.7,21.6,62,21.6c131.6,0.1,278.1-193,292.5-243.6C552.1,620.8,563.5,550.6,544.5,501.3z " style="fill: rgb(0, 0, 0);"/>
    <path class="st3" d="M404.4,690.2c-16.7-12.1-35.3-9.5-58-6.1c-26.5,3.9-91.7,33.1-92.7,118.4c-0.2,19.1-11.1,37.2-10.7,56.5 c0.4,19.3,7.8,39.4,23.4,50.1c14.4,9.8,33.6,10,50,4.3c16.4-5.7,30.6-16.5,44-27.8c29.3-24.6,57.4-53.3,69.8-90 C442.6,758.9,435.3,712.7,404.4,690.2z" style="fill: rgb(0, 0, 0);"/>
    <path class="st2" d="M203.9,822c-1.5-10.8,1.3-21.6,5-31.6c16.2-44.2,50.7-79,91.5-92.5c21.1-7,45.2-8,64.4,4.9 c19.1,12.9,30.1,38.3,31.1,63.2c1,24.9-7,49.2-18.7,70.1c-11.7,20.9-27,38.8-42.3,56.5c28.7-14.2,61.5-18.2,92.7-11.3 c7,1.5,14.1,3.8,19.6,8.9c5.5,5.1,8.9,13.9,6.5,21.3c-3.4,10.4-15.2,12.8-25,13.6c-63.9,5.3-128.1,9.3-192.3,4.9 c-18-1.2-36.8-3.4-52.2-14.2c-19.9-13.9-31-40.3-33.4-66.3c-3.2-33.9,7.1-68.8,27.6-93.4c1-1.1,2-2.7,1.4-4.1 c-0.6-1.4-3.2,0.2-1.9,1.1L203.9,822z" style="fill: rgb(0, 0, 0);"/>
    <path class="st2" d="M440.1,734.4c-5.9,18.9-1.4,39.2,1.2,58.8c4.6,34.5,3.2,69.8-4.1,103.8c-1.4,6.7-2.6,14.7,2.6,19.2 c2.8,2.4,6.7,3,10.4,3.5c10.3,1.2,28.2,0.3,38.5,0.3c8.1,0,7.3-5.6,8.4-9.5c4.7-16.3-8.4-35.2-25.7-37.1c7.3-35.3,14.7-70.7,22-106 c3.4-16.3,6.8-32.6,10.1-48.9c1.4-6.5,2.7-13.2,1.7-19.8c-1-6.6-5-13.1-11.4-15.5c-6.4-2.4-14.9,1.2-16.1,7.7L440.1,734.4z" style="fill: rgb(0, 0, 0);"/>
    <path class="st3" d="M442.3,571.3c1.7,23.7,10.8,46.4,23.2,66.7c0.8-3.4,2.5-6.5,4.9-9c5.7,32.7,20.8,63.6,43,88.2 c29.1-60.4,26.4-135-6.8-193.2c-4.5-7.9-9.9-15.9-17.9-20.2C451.8,483.7,440.7,549,442.3,571.3z" style="fill: rgb(0, 0, 0);"/>
    <path class="st1" d="M465.8,604c2.4-5.2,5.7-9.9,9.7-13.8c-0.5,27.2,8.2,54.5,24.3,76.5c1.7-2.4,3.4-4.9,5.1-7.3 c9.2,15.5,15.9,32.5,19.6,50.1c8.5-19,17-38.1,25.4-57.1c0.7,3.2,1.4,6.4,2.1,9.5c7.9-25.9,9-53.8,2.9-80.2 c2.8,4.7,5.5,9.5,8.3,14.2c1.1-29.2-0.8-58.6-5.5-87.4c-2.1-12.7-5.1-26.2-14.4-35.2c-7.7-7.5-18.8-10.7-29.6-10.7 C445,462.3,439.9,559.3,465.8,604z" style="fill: rgb(0, 0, 0);"/>
    <path class="st2" d="M636,389c-41.5-17.9-50.8-66.5-93.4-86c-17.5-8-51-11.9-70.3-11.9c-14,0-28.1,0.6-41.4,5 c-21.9,7.2-39.7,24.2-51.4,44.1c-15.4,26.4-20.5,60.1-8.9,88.1c1.8,19.1,13.5,36.9,29,48.6c17.3,13.1,38.8,19.5,60.2,23 c27.4,4.4,94.5,6.8,115.9-4.1c30.4-15.5,50.4-46.3,64.8-77.1C647.1,404.5,643.5,392.3,636,389z" style="fill: rgb(0, 0, 0);"/>
    <g>
      <path class="st3" d="M414.4,901c-0.4-0.1-0.7-0.2-1.1-0.2C413.6,900.9,414,901,414.4,901z" style="fill: rgb(0, 0, 0);"/>
      <path class="st3" d="M447.1,890.3c-5.5-5.1-12.6-7.4-19.6-8.9c-1.1-0.3-2.3-0.5-3.5-0.7c4.7,2.6,9.3,5.3,13.1,9.1 c4.1,4.1,7,9.8,6.4,15.6c-0.6,5.8-5.3,11.3-11.1,11.4c-1.4,0-2.9-0.3-3.8-1.3c-0.9-0.9-1.2-2.3-1.6-3.5c-1.8-5.6-6.9-9.9-12.6-11 c4.6,1.2,6,8.5,2.9,12.5c-3.3,4.3-9.2,5.6-14.6,6.3c-13.7,1.9-27.5,2.5-41.3,2.9c-26.6,0.8-53.2,0.9-79.8,1 c-36.4,0.1-74.5-0.2-106.9-16.1c2.9,3.1,6.1,5.9,9.5,8.3c15.5,10.8,34.2,13,52.2,14.2c64.2,4.4,128.4,0.4,192.3-4.9 c9.8-0.8,21.6-3.2,25-13.6C456.1,904.2,452.6,895.4,447.1,890.3z" style="fill: rgb(0, 0, 0);"/>
    </g>
    <path class="st3" d="M489.5,882.8c4.6,8.7,5.7,19.3,2.8,28.7c-0.4,1.2-1.2,2.6-2.4,2.5c-1.3-0.2-1.7-1.8-1.8-3.1 c-0.4-3.9-1.2-7.8-3.1-11.3c-1.9-3.4-5.1-6.3-9-7.1c3.5,2.3,5.8,6.5,5.8,10.7c0.1,4.2-2.1,8.4-5.5,10.8c-2.7,1.9-6,2.7-9.3,3.2 c-4.8,0.7-12.3,2.1-16.9,0.4c-2.6-0.9-6.1-3.2-7.7,0.2c2.4,1.1,5.1,1.5,7.8,1.8c10.3,1.2,28.2,0.3,38.5,0.3c8.1,0,7.3-5.6,8.4-9.5 C499.9,900.8,496.4,890.2,489.5,882.8z" style="fill: rgb(0, 0, 0);"/>
    <g>
      <path class="st3" d="M526.6,342.4c-5.9-7.4-15.2-12-24.7-12c-4.9,0-13.3,0-18.6,6.3c-3.1,3.7-2.7,12.1,1.7,14 c0.5-0.5,16,6.1,16,6.1c6.8,7,14.6,12.9,23.2,17.5c1,0.6-0.1,0.6,1,0.6c2.9,0,6.9-2.8,7.5-5.6 C534.9,359.9,532.5,349.8,526.6,342.4z" style="fill: rgb(0, 0, 0);"/>
    </g>
    <path class="st1" d="M594.6,411.1c-1.3,3.5-1.6,7.4-1.4,11.2c0.3,6.7,2,13.6,6.3,18.8c4.2,5.2,11.3,8.4,17.9,6.7 c5.4-1.4,9.6-5.8,12.8-10.4c4.5-6.3,8.2-13.8,7.9-21.6c-0.4-9.2-9.3-20.4-19.1-20.7C609.5,394.9,597.8,402.4,594.6,411.1z" style="fill: rgb(0, 0, 0);"/>
    <path class="st6" d="M636,389c-1.2-0.5-2.4-1.1-3.5-1.6c-4.5,0.4-9,2.4-12.3,5.3c-2.6,2.2-4.8,5.9-3.4,9.1c0.5,1.1,1.3,2,2.1,2.9 c5.2,5.7,10.5,11.3,15.7,17c0.6,0.7,1.2,1.3,2,1.8c0.5,0.3,1,0.4,1.5,0.5c0.9-1.8,1.7-3.6,2.6-5.4C647.1,404.5,643.5,392.3,636,389 z" style="fill: rgb(0, 0, 0);"/>
  </g>
</svg>